<?xml version="1.0" encoding="UTF-8" standalone="no"?>
<!-- Created with Inkscape (http://www.inkscape.org/) -->

<svg
   xmlns:dc="http://purl.org/dc/elements/1.1/"
   xmlns:cc="http://creativecommons.org/ns#"
   xmlns:rdf="http://www.w3.org/1999/02/22-rdf-syntax-ns#"
   xmlns:svg="http://www.w3.org/2000/svg"
   xmlns="http://www.w3.org/2000/svg"
   xmlns:xlink="http://www.w3.org/1999/xlink"
   xmlns:sodipodi="http://sodipodi.sourceforge.net/DTD/sodipodi-0.dtd"
   xmlns:inkscape="http://www.inkscape.org/namespaces/inkscape"
   width="210mm"
   height="297mm"
   viewBox="0 0 210 297"
   version="1.1"
   id="svg8"
   inkscape:version="0.92.1 r15371"
   sodipodi:docname="logo_jimmy.svg">
  <defs
     id="defs2">
    <linearGradient
       inkscape:collect="always"
       id="linearGradient4507">
      <stop
         style="stop-color:#00ff00;stop-opacity:1"
         offset="0"
         id="stop4503" />
      <stop
         style="stop-color:#222b00;stop-opacity:1"
         offset="1"
         id="stop4505" />
    </linearGradient>
    <linearGradient
       inkscape:collect="always"
       xlink:href="#linearGradient4507"
       id="linearGradient4509"
       x1="92.226189"
       y1="104.9881"
       x2="136.31932"
       y2="139.70052"
       gradientUnits="userSpaceOnUse"
       gradientTransform="scale(3.7795276)" />
  </defs>
  <sodipodi:namedview
     id="base"
     pagecolor="#ffffff"
     bordercolor="#666666"
     borderopacity="1.0"
     inkscape:pageopacity="0.0"
     inkscape:pageshadow="2"
     inkscape:zoom="0.35"
     inkscape:cx="636.66041"
     inkscape:cy="532.20787"
     inkscape:document-units="mm"
     inkscape:current-layer="layer1"
     showgrid="false"
     inkscape:window-width="1366"
     inkscape:window-height="706"
     inkscape:window-x="-8"
     inkscape:window-y="-8"
     inkscape:window-maximized="1" />
  <metadata
     id="metadata5">
    <rdf:RDF>
      <cc:Work
         rdf:about="">
        <dc:format>image/svg+xml</dc:format>
        <dc:type
           rdf:resource="http://purl.org/dc/dcmitype/StillImage" />
        <dc:title></dc:title>
      </cc:Work>
    </rdf:RDF>
  </metadata>
  <g
     inkscape:label="Capa 1"
     inkscape:groupmode="layer"
     id="layer1">
    <g
       id="g4619"
       transform="translate(8.3154762,19.654762)">
      <g
         transform="translate(2.7959964,-7.1241588)"
         id="g4605">
        <path
           inkscape:connector-curvature="0"
           style="fill:url(#linearGradient4509);fill-opacity:1;stroke:none;stroke-width:0.99999994;stroke-opacity:1"
           d="m 27.486328,362.51953 c -23.1417429,0 -41.771484,2.16157 -41.771484,4.8457 v 330.3086 c 0,2.68413 18.6297411,4.8457 41.771484,4.8457 H 758.22852 c 23.14174,0 41.77148,-2.16157 41.77148,-4.8457 v -330.3086 c 0,-2.68413 -18.62974,-4.8457 -41.77148,-4.8457 z M 7.0917969,465.25586 c 3.0766781,0 5.6938921,1.38961 7.8515621,4.16797 2.157671,2.72691 3.236329,6.07147 3.236329,10.0332 0,4.01319 -1.078658,7.40914 -3.236329,10.1875 -2.117713,2.72691 -4.734927,4.08985 -7.8515621,4.08985 -3.0766785,0 -5.6938919,-1.38766 -7.85156252,-4.16602 C -2.8774794,486.79 -3.9375,483.41877 -3.9375,479.45703 c 0,-3.96173 1.0600206,-7.30629 3.17773438,-10.0332 2.15767062,-2.77836 4.77488402,-4.16797 7.85156252,-4.16797 z M 32.263672,473.2832 H 53.541016 V 578.62891 H 32.263672 Z m 48.847656,0 h 20.976562 l 16.60352,56.18555 17.56054,-56.18555 h 21.15625 l 12.34766,105.34571 h -21.27734 l -6.05274,-60.66016 -19.7793,60.66016 h -8.45117 l -18.878904,-60.66016 -6.953125,60.66016 h -21.15625 z m 112.439452,0 h 20.97656 l 16.60157,56.18555 17.56054,-56.18555 h 21.15821 l 12.3457,105.34571 h -21.27539 l -6.05469,-60.66016 -19.77734,60.66016 h -8.45117 l -18.88086,-60.66016 -6.95118,60.66016 h -21.1582 z m 92.11914,0 h 25.41211 l 15.46485,28.70899 14.86328,-28.70899 h 25.77148 l -30.62695,54.71875 v 50.62696 H 315.2793 v -50.62696 z m 146.48242,0 h 23.19532 l 30.80664,105.34571 h -22.7168 l -5.27344,-18.36719 h -29.36914 l -5.63281,18.36719 h -22.47656 z m 53.46289,0 h 25.41211 l 15.46289,28.70899 14.86329,-28.70899 h 25.77343 L 536.5,528.00195 v 50.62696 h -21.27734 v -50.62696 z m 112.4375,0 h 23.19532 l 30.80664,105.34571 h -22.71485 l -5.27539,-18.36719 h -29.36718 l -5.63477,18.36719 h -22.47461 z m 63.53125,0 h 21.27735 v 82.42383 h 25.5332 v 22.92188 h -46.81055 z m 81.51172,0 h 23.19532 l 30.80664,105.34571 h -22.71485 l -5.27343,-18.36719 h -29.36915 l -5.63476,18.36719 h -22.47461 z m -299.49609,32.56836 -8.92969,33.57227 h 17.74024 z m 165.90039,0 -8.92969,33.57227 h 17.74024 z m 145.04492,0 -8.93164,33.57227 h 17.74219 z M -2.7382812,507.00977 H 16.919922 V 614.43945 H -2.7382812 Z"
           transform="scale(0.26458333)"
           id="rect4485" />
        <g
           id="g4530"
           transform="translate(192.76786,23.434524)">
          <ellipse
             ry="23.8125"
             rx="23.056549"
             cy="54.717262"
             cx="-114.52679"
             id="path4512"
             style="fill:#ffff00;stroke:none;stroke-width:0.26458332;stroke-opacity:1" />
          <ellipse
             style="fill:#ffff00;stroke:none;stroke-width:0.26458332;stroke-opacity:1"
             id="ellipse4514"
             cx="-54.806549"
             cy="55.473213"
             rx="23.056549"
             ry="23.8125" />
          <circle
             r="12.095239"
             cy="58.119053"
             cx="-105.83334"
             id="path4516"
             style="fill:#ff0000;stroke:none;stroke-width:0.26458332;stroke-opacity:1" />
          <circle
             style="fill:#ff0000;stroke:none;stroke-width:0.26458332;stroke-opacity:1"
             id="circle4518"
             cx="-61.232143"
             cy="56.607147"
             r="12.095239" />
          <ellipse
             ry="6.4255953"
             rx="5.6696429"
             cy="57.741081"
             cx="-103.1875"
             id="path4520"
             style="fill:#000000;stroke:none;stroke-width:0.26458332;stroke-opacity:1" />
          <ellipse
             style="fill:#000000;stroke:none;stroke-width:0.26458332;stroke-opacity:1"
             id="ellipse4522"
             cx="-61.610123"
             cy="56.98513"
             rx="5.6696429"
             ry="6.4255953" />
        </g>
        <path
           sodipodi:type="star"
           style="fill:#0000ff;stroke:none;stroke-width:0.7082535;stroke-opacity:1"
           id="path4590"
           sodipodi:sides="5"
           sodipodi:cx="92.98214"
           sodipodi:cy="16.541666"
           sodipodi:r1="184.69542"
           sodipodi:r2="17.570812"
           sodipodi:arg1="-0.73038129"
           sodipodi:arg2="-0.10206276"
           inkscape:flatsided="false"
           inkscape:rounded="0"
           inkscape:randomized="0"
           d="M 230.56547,-106.67857 110.46152,14.751452 252.68713,109.31404 100.08616,32.612334 54.101928,197.09838 79.893289,28.264099 -90.752146,35.35948 77.788766,7.7158601 18.308318,-152.385 96.680969,-0.63541466 Z"
           inkscape:transform-center-x="0.067541211"
           inkscape:transform-center-y="1.0356505"
           transform="matrix(0.43211005,0,0,0.32296323,69.415149,42.72856)" />
      </g>
      <path
         sodipodi:type="star"
         style="fill:#0000ff;stroke:none;stroke-width:0.7082535;stroke-opacity:1"
         id="path4592"
         sodipodi:sides="5"
         sodipodi:cx="92.98214"
         sodipodi:cy="16.541666"
         sodipodi:r1="184.69542"
         sodipodi:r2="17.570812"
         sodipodi:arg1="-0.73038129"
         sodipodi:arg2="-0.10206276"
         inkscape:flatsided="false"
         inkscape:rounded="0"
         inkscape:randomized="0"
         d="M 230.56547,-106.67857 110.46152,14.751452 252.68713,109.31404 100.08616,32.612334 54.101928,197.09838 79.893289,28.264099 -90.752146,35.35948 77.788766,7.7158601 18.308318,-152.385 96.680969,-0.63541466 Z"
         inkscape:transform-center-x="1.0356477"
         inkscape:transform-center-y="-0.067540851"
         transform="matrix(0,0.43211005,-0.32296323,0,113.68391,8.9100367)" />
      <path
         transform="matrix(-0.43211005,0,0,-0.32296323,156.54893,45.483651)"
         inkscape:transform-center-y="-1.0356482"
         inkscape:transform-center-x="-0.067543651"
         d="M 230.56547,-106.67857 110.46152,14.751452 252.68713,109.31404 100.08616,32.612334 54.101928,197.09838 79.893289,28.264099 -90.752146,35.35948 77.788766,7.7158601 18.308318,-152.385 96.680969,-0.63541466 Z"
         inkscape:randomized="0"
         inkscape:rounded="0"
         inkscape:flatsided="false"
         sodipodi:arg2="-0.10206276"
         sodipodi:arg1="-0.73038129"
         sodipodi:r2="17.570812"
         sodipodi:r1="184.69542"
         sodipodi:cy="16.541666"
         sodipodi:cx="92.98214"
         sodipodi:sides="5"
         id="path4594"
         style="fill:#0000ff;stroke:none;stroke-width:0.7082535;stroke-opacity:1"
         sodipodi:type="star" />
    </g>
  </g>
</svg>
